<?xml version="1.0" encoding="UTF-8"?>
<!DOCTYPE svg PUBLIC "-//W3C//DTD SVG 1.1//EN" "http://www.w3.org/Graphics/SVG/1.1/DTD/svg11.dtd">
<svg xmlns="http://www.w3.org/2000/svg" version="1.1" width="512px" height="512px" style="shape-rendering:geometricPrecision; text-rendering:geometricPrecision; image-rendering:optimizeQuality; fill-rule:evenodd; clip-rule:evenodd" xmlns:xlink="http://www.w3.org/1999/xlink">
<g><path style="opacity:0.997" fill="#01d566" d="M 281.5,81.5 C 287.389,82.2769 292.722,84.4436 297.5,88C 305.246,97.7477 314.246,106.081 324.5,113C 336.098,114.614 347.765,115.614 359.5,116C 370.914,118.415 378.081,125.248 381,136.5C 382.667,145.167 384.333,153.833 386,162.5C 387.922,168.43 391.422,173.263 396.5,177C 404.444,181.889 411.944,187.389 419,193.5C 425.412,201.409 427.746,210.409 426,220.5C 422.667,229.167 419.333,237.833 416,246.5C 414,252.5 414,258.5 416,264.5C 420.81,274.608 424.31,285.108 426.5,296C 426.438,302.421 424.605,308.254 421,313.5C 410.667,321.833 400.333,330.167 390,338.5C 388.667,341.167 387.333,343.833 386,346.5C 384.127,356.199 382.127,365.866 380,375.5C 375.806,385.031 368.639,390.864 358.5,393C 348.476,393.334 338.476,394.001 328.5,395C 324.462,395.899 320.795,397.566 317.5,400C 309.47,408.364 301.137,416.364 292.5,424C 285.456,427.431 278.123,428.264 270.5,426.5C 274.982,425.674 279.649,425.174 284.5,425C 275.756,421.127 267.423,416.46 259.5,411C 251.68,406.397 243.68,405.564 235.5,408.5C 226.054,409.528 216.72,411.195 207.5,413.5C 199.065,412.865 192.231,409.198 187,402.5C 182.078,393.657 177.412,384.657 173,375.5C 170.5,373 168,370.5 165.5,368C 154.089,363.863 142.755,359.53 131.5,355C 125.773,350.372 121.94,344.539 120,337.5C 120.664,323.849 120.998,310.183 121,296.5C 120.194,293.554 118.861,290.888 117,288.5C 110.618,281.12 104.618,273.453 99,265.5C 95.1411,255.811 95.8077,246.478 101,237.5C 108.061,229.706 114.395,221.372 120,212.5C 121.935,199.498 121.769,186.498 119.5,173.5C 120.436,162.462 125.769,154.296 135.5,149C 147.009,145.833 158.009,141.5 168.5,136C 170.788,133.257 172.955,130.423 175,127.5C 179.078,119.009 183.412,110.676 188,102.5C 191.79,98.8616 195.957,95.8616 200.5,93.5C 211.005,95.7679 221.505,98.1012 232,100.5C 235.171,99.7777 238.338,99.1111 241.5,98.5C 247.072,99.0104 252.405,98.1771 257.5,96C 265.691,91.2717 273.691,86.4383 281.5,81.5 Z"/></g>
<g><path style="opacity:0.983" fill="#03ae53" d="M 281.5,81.5 C 273.691,86.4383 265.691,91.2717 257.5,96C 252.405,98.1771 247.072,99.0104 241.5,98.5C 249.77,93.6934 258.104,88.8601 266.5,84C 271.295,81.9669 276.295,81.1336 281.5,81.5 Z"/></g>
<g><path style="opacity:0.995" fill="#00b557" d="M 200.5,93.5 C 195.957,95.8616 191.79,98.8616 188,102.5C 183.412,110.676 179.078,119.009 175,127.5C 172.955,130.423 170.788,133.257 168.5,136C 158.009,141.5 147.009,145.833 135.5,149C 125.769,154.296 120.436,162.462 119.5,173.5C 121.769,186.498 121.935,199.498 120,212.5C 114.395,221.372 108.061,229.706 101,237.5C 95.8077,246.478 95.1411,255.811 99,265.5C 104.618,273.453 110.618,281.12 117,288.5C 118.861,290.888 120.194,293.554 121,296.5C 120.998,310.183 120.664,323.849 120,337.5C 121.94,344.539 125.773,350.372 131.5,355C 142.755,359.53 154.089,363.863 165.5,368C 168,370.5 170.5,373 173,375.5C 177.412,384.657 182.078,393.657 187,402.5C 192.231,409.198 199.065,412.865 207.5,413.5C 193.539,417.792 182.039,414.125 173,402.5C 169,394.5 165,386.5 161,378.5C 158.117,373.95 154.284,370.45 149.5,368C 141.5,365.333 133.5,362.667 125.5,360C 113.739,354.893 107.405,345.893 106.5,333C 107.5,324 108.5,315 109.5,306C 109.005,300.852 107.505,296.018 105,291.5C 97.6018,283.035 90.9351,274.035 85,264.5C 82.3693,255.395 83.3693,246.728 88,238.5C 93.6667,231.5 99.3333,224.5 105,217.5C 107.505,212.982 109.005,208.148 109.5,203C 108.5,194 107.5,185 106.5,176C 107.021,164.278 112.354,155.612 122.5,150C 134.009,146.833 145.009,142.5 155.5,137C 162.471,127.567 168.304,117.401 173,106.5C 179.507,96.712 188.674,92.3787 200.5,93.5 Z"/></g>
<g><path style="opacity:1" fill="#fdfefe" d="M 329.5,190.5 C 345.777,187.799 355.444,194.465 358.5,210.5C 358.344,216.132 356.51,221.132 353,225.5C 317.5,254.333 282,283.167 246.5,312C 242.328,315.499 237.662,318.166 232.5,320C 226.405,321.266 220.738,320.266 215.5,317C 195.962,295.798 176.796,274.298 158,252.5C 152.452,243.709 152.119,234.709 157,225.5C 163.148,218.007 170.982,215.507 180.5,218C 184.51,219.343 188.01,221.509 191,224.5C 204.009,239.674 217.176,254.674 230.5,269.5C 263.255,242.733 296.255,216.399 329.5,190.5 Z"/></g>
<g><path style="opacity:1" fill="#00b959" d="M 270.5,426.5 C 262.798,422.961 255.465,418.795 248.5,414C 244.259,411.651 239.925,409.818 235.5,408.5C 243.68,405.564 251.68,406.397 259.5,411C 267.423,416.46 275.756,421.127 284.5,425C 279.649,425.174 274.982,425.674 270.5,426.5 Z"/></g>
</svg>
