<svg xmlns="http://www.w3.org/2000/svg" xmlns:xlink="http://www.w3.org/1999/xlink" width="152" zoomAndPan="magnify" viewBox="0 0 114 30.000001" height="40" preserveAspectRatio="xMidYMid meet" version="1.0"><defs><g/><clipPath id="9d896ffcec"><path d="M 4.742188 1.855469 L 31.597656 1.855469 L 31.597656 27.257812 L 4.742188 27.257812 Z M 4.742188 1.855469 " clip-rule="nonzero"/></clipPath></defs><path fill="#087c7c" d="M 16.550781 12.941406 L 17.855469 12.941406 L 17.855469 14.242188 L 16.550781 14.242188 Z M 17.855469 14.777344 L 17.855469 16.082031 L 16.550781 16.082031 L 16.550781 14.777344 Z M 18.386719 12.941406 L 19.683594 12.941406 L 19.683594 14.242188 L 18.386719 14.242188 Z M 19.683594 14.777344 L 19.683594 16.082031 L 18.386719 16.082031 L 18.386719 14.777344 Z M 19.683594 14.777344 " fill-opacity="1" fill-rule="evenodd"/><path fill="#e0701d" d="M 11.6875 10.800781 L 11.6875 23.453125 L 13.957031 24.761719 L 13.957031 19.527344 L 18.117188 21.933594 L 24.546875 18.222656 L 24.546875 10.800781 L 18.117188 7.089844 Z M 18.117188 19.320312 L 13.957031 16.914062 L 13.957031 12.109375 L 18.117188 9.703125 L 22.28125 12.109375 L 22.28125 16.914062 Z M 18.117188 19.320312 " fill-opacity="1" fill-rule="evenodd"/><g clip-path="url(#9d896ffcec)"><path fill="#087c7c" d="M 18.117188 24.554688 L 15.367188 22.960938 L 15.367188 25.578125 L 18.117188 27.167969 L 23.601562 24.003906 L 29.082031 20.839844 L 29.082031 9.488281 L 31.34375 9.488281 L 29.082031 8.183594 L 23.601562 5.019531 L 18.117188 1.855469 L 12.636719 5.019531 L 7.160156 8.183594 L 4.894531 9.488281 L 7.160156 9.488281 L 7.160156 20.839844 L 10.28125 22.640625 L 10.28125 20.023438 L 9.425781 19.535156 L 9.425781 9.488281 L 18.117188 4.46875 L 26.816406 9.488281 L 26.816406 19.535156 Z M 18.117188 24.554688 " fill-opacity="1" fill-rule="evenodd"/></g><g fill="#087c7c" fill-opacity="1"><g transform="translate(33.620076, 20.059879)"><g><path d="M 3.46875 -10.484375 L 3.46875 0 L 1.328125 0 L 1.328125 -10.484375 Z M 3.46875 -10.484375 "/></g></g></g><g fill="#087c7c" fill-opacity="1"><g transform="translate(40.493143, 20.059879)"><g><path d="M 1.328125 0 L 1.328125 -10.46875 C 1.484375 -10.5 1.914062 -10.539062 2.625 -10.59375 C 3.34375 -10.65625 3.890625 -10.6875 4.265625 -10.6875 C 6.941406 -10.6875 8.28125 -9.59375 8.28125 -7.40625 C 8.28125 -6.21875 7.800781 -5.210938 6.84375 -4.390625 C 7.238281 -3.472656 7.914062 -2.007812 8.875 0 L 6.6875 0 C 6.144531 -1.175781 5.5625 -2.445312 4.9375 -3.8125 C 4.8125 -3.789062 4.644531 -3.78125 4.4375 -3.78125 C 3.945312 -3.78125 3.632812 -3.820312 3.5 -3.90625 L 3.5 0 Z M 3.5 -8.828125 L 3.5 -5.671875 C 3.820312 -5.566406 4.179688 -5.515625 4.578125 -5.515625 C 5.523438 -5.515625 6 -6.144531 6 -7.40625 C 6 -8.425781 5.503906 -8.9375 4.515625 -8.9375 C 3.953125 -8.9375 3.613281 -8.898438 3.5 -8.828125 Z M 3.5 -8.828125 "/></g></g></g><g fill="#087c7c" fill-opacity="1"><g transform="translate(51.273776, 20.059879)"><g><path d="M 3.28125 -8.75 L 0.25 -8.75 L 0.25 -10.484375 L 8.734375 -10.484375 L 8.734375 -8.75 L 5.46875 -8.75 L 5.46875 0 L 3.28125 0 Z M 3.28125 -8.75 "/></g></g></g><g fill="#087c7c" fill-opacity="1"><g transform="translate(62.335886, 20.059879)"><g><path d="M 1.0625 -10.484375 L 7.921875 -10.484375 L 7.921875 -8.75 L 3.234375 -8.75 L 3.234375 -6.28125 L 7.140625 -6.28125 L 7.140625 -4.53125 L 3.234375 -4.53125 L 3.234375 -1.734375 L 8.125 -1.734375 L 8.125 0 L 1.0625 0 Z M 1.0625 -10.484375 "/></g></g></g><g fill="#e0701d" fill-opacity="1"><g transform="translate(72.803494, 20.059879)"><g><path d="M 3.375 -10.484375 L 3.375 -6.15625 C 4.832031 -8.132812 5.894531 -9.578125 6.5625 -10.484375 L 9.21875 -10.484375 C 8.082031 -8.992188 6.828125 -7.347656 5.453125 -5.546875 C 6.898438 -3.816406 8.414062 -1.96875 10 0 L 7.125 0 C 6.101562 -1.351562 4.867188 -2.988281 3.421875 -4.90625 L 3.375 -4.90625 L 3.375 0 L 1.328125 0 L 1.328125 -10.484375 Z M 3.375 -10.484375 "/></g></g></g><g fill="#e0701d" fill-opacity="1"><g transform="translate(84.759714, 20.059879)"><g><path d="M 3.9375 -10.484375 L 5.765625 -10.484375 L 9.625 0 L 7.421875 0 C 7.234375 -0.550781 7 -1.28125 6.71875 -2.1875 L 2.96875 -2.1875 C 2.8125 -1.6875 2.570312 -0.957031 2.25 0 L 0.078125 0 Z M 4.875 -7.65625 C 4.5625 -6.78125 4.132812 -5.550781 3.59375 -3.96875 L 6.109375 -3.96875 C 5.585938 -5.5 5.175781 -6.726562 4.875 -7.65625 Z M 4.875 -7.65625 "/></g></g></g><g fill="#e0701d" fill-opacity="1"><g transform="translate(96.550359, 20.059879)"><g><path d="M 3.9375 -10.484375 L 5.765625 -10.484375 L 9.625 0 L 7.421875 0 C 7.234375 -0.550781 7 -1.28125 6.71875 -2.1875 L 2.96875 -2.1875 C 2.8125 -1.6875 2.570312 -0.957031 2.25 0 L 0.078125 0 Z M 4.875 -7.65625 C 4.5625 -6.78125 4.132812 -5.550781 3.59375 -3.96875 L 6.109375 -3.96875 C 5.585938 -5.5 5.175781 -6.726562 4.875 -7.65625 Z M 4.875 -7.65625 "/></g></g></g></svg>