<svg xmlns="http://www.w3.org/2000/svg" xmlns:xlink="http://www.w3.org/1999/xlink" width="260" zoomAndPan="magnify" viewBox="0 0 194.87999 142.499996" height="190" preserveAspectRatio="xMidYMid meet" version="1.0"><defs><g/><clipPath id="b57cabf8b5"><path d="M 53.445312 11.800781 L 141 11.800781 L 141 94.757812 L 53.445312 94.757812 Z M 53.445312 11.800781 " clip-rule="nonzero"/></clipPath></defs><path fill="#087c7c" d="M 92.285156 48.269531 L 96.574219 48.269531 L 96.574219 52.546875 L 92.285156 52.546875 Z M 96.574219 54.300781 L 96.574219 58.59375 L 92.285156 58.59375 L 92.285156 54.300781 Z M 98.316406 48.269531 L 102.589844 48.269531 L 102.589844 52.546875 L 98.316406 52.546875 Z M 102.589844 54.300781 L 102.589844 58.59375 L 98.316406 58.59375 L 98.316406 54.300781 Z M 102.589844 54.300781 " fill-opacity="1" fill-rule="evenodd"/><path fill="#e0701d" d="M 76.289062 41.21875 L 76.289062 82.84375 L 83.746094 87.152344 L 83.746094 69.9375 L 97.4375 77.847656 L 118.585938 65.644531 L 118.585938 41.21875 L 97.4375 29.015625 Z M 97.4375 69.246094 L 83.746094 61.335938 L 83.746094 45.527344 L 97.4375 37.617188 L 111.128906 45.527344 L 111.128906 61.335938 Z M 97.4375 69.246094 " fill-opacity="1" fill-rule="evenodd"/><g clip-path="url(#b57cabf8b5)"><path fill="#087c7c" d="M 97.4375 86.460938 L 88.382812 81.230469 L 88.382812 89.832031 L 97.4375 95.0625 L 115.46875 84.660156 L 133.5 74.242188 L 133.5 36.914062 L 140.941406 36.914062 L 133.5 32.621094 L 115.46875 22.203125 L 97.4375 11.800781 L 79.40625 22.203125 L 61.390625 32.621094 L 53.933594 36.914062 L 61.390625 36.914062 L 61.390625 74.242188 L 71.652344 80.164062 L 71.652344 71.566406 L 68.847656 69.953125 L 68.847656 36.914062 L 97.4375 20.402344 L 126.042969 36.914062 L 126.042969 69.953125 Z M 97.4375 86.460938 " fill-opacity="1" fill-rule="evenodd"/></g><g fill="#087c7c" fill-opacity="1"><g transform="translate(47.345016, 119.207894)"><g><path d="M 4.78125 -14.453125 L 4.78125 0 L 1.828125 0 L 1.828125 -14.453125 Z M 4.78125 -14.453125 "/></g></g></g><g fill="#087c7c" fill-opacity="1"><g transform="translate(56.824231, 119.207894)"><g><path d="M 1.828125 0 L 1.828125 -14.4375 C 2.035156 -14.476562 2.632812 -14.535156 3.625 -14.609375 C 4.613281 -14.691406 5.367188 -14.734375 5.890625 -14.734375 C 9.578125 -14.734375 11.421875 -13.226562 11.421875 -10.21875 C 11.421875 -8.582031 10.757812 -7.191406 9.4375 -6.046875 C 9.976562 -4.785156 10.914062 -2.769531 12.25 0 L 9.234375 0 C 8.484375 -1.625 7.675781 -3.375 6.8125 -5.25 C 6.644531 -5.21875 6.414062 -5.203125 6.125 -5.203125 C 5.445312 -5.203125 5.007812 -5.265625 4.8125 -5.390625 L 4.8125 0 Z M 4.8125 -12.171875 L 4.8125 -7.8125 C 5.269531 -7.675781 5.769531 -7.609375 6.3125 -7.609375 C 7.613281 -7.609375 8.265625 -8.476562 8.265625 -10.21875 C 8.265625 -11.625 7.585938 -12.328125 6.234375 -12.328125 C 5.460938 -12.328125 4.988281 -12.273438 4.8125 -12.171875 Z M 4.8125 -12.171875 "/></g></g></g><g fill="#087c7c" fill-opacity="1"><g transform="translate(71.693876, 119.207894)"><g><path d="M 4.515625 -12.0625 L 0.34375 -12.0625 L 0.34375 -14.453125 L 12.03125 -14.453125 L 12.03125 -12.0625 L 7.53125 -12.0625 L 7.53125 0 L 4.515625 0 Z M 4.515625 -12.0625 "/></g></g></g><g fill="#087c7c" fill-opacity="1"><g transform="translate(86.95181, 119.207894)"><g><path d="M 1.46875 -14.453125 L 10.921875 -14.453125 L 10.921875 -12.0625 L 4.453125 -12.0625 L 4.453125 -8.65625 L 9.84375 -8.65625 L 9.84375 -6.265625 L 4.453125 -6.265625 L 4.453125 -2.40625 L 11.21875 -2.40625 L 11.21875 0 L 1.46875 0 Z M 1.46875 -14.453125 "/></g></g></g><g fill="#e0701d" fill-opacity="1"><g transform="translate(101.392062, 119.207894)"><g><path d="M 4.65625 -14.453125 L 4.65625 -8.5 C 6.664062 -11.226562 8.128906 -13.210938 9.046875 -14.453125 L 12.71875 -14.453125 C 11.15625 -12.398438 9.421875 -10.132812 7.515625 -7.65625 C 9.515625 -5.257812 11.609375 -2.707031 13.796875 0 L 9.828125 0 C 8.421875 -1.875 6.722656 -4.128906 4.734375 -6.765625 L 4.65625 -6.765625 L 4.65625 0 L 1.828125 0 L 1.828125 -14.453125 Z M 4.65625 -14.453125 "/></g></g></g><g fill="#e0701d" fill-opacity="1"><g transform="translate(117.8834, 119.207894)"><g><path d="M 5.4375 -14.453125 L 7.953125 -14.453125 L 13.265625 0 L 10.234375 0 C 9.972656 -0.757812 9.65625 -1.765625 9.28125 -3.015625 L 4.09375 -3.015625 C 3.875 -2.328125 3.546875 -1.320312 3.109375 0 L 0.109375 0 Z M 6.71875 -10.546875 C 6.289062 -9.347656 5.703125 -7.660156 4.953125 -5.484375 L 8.421875 -5.484375 C 7.710938 -7.585938 7.144531 -9.273438 6.71875 -10.546875 Z M 6.71875 -10.546875 "/></g></g></g><g fill="#e0701d" fill-opacity="1"><g transform="translate(134.146331, 119.207894)"><g><path d="M 5.4375 -14.453125 L 7.953125 -14.453125 L 13.265625 0 L 10.234375 0 C 9.972656 -0.757812 9.65625 -1.765625 9.28125 -3.015625 L 4.09375 -3.015625 C 3.875 -2.328125 3.546875 -1.320312 3.109375 0 L 0.109375 0 Z M 6.71875 -10.546875 C 6.289062 -9.347656 5.703125 -7.660156 4.953125 -5.484375 L 8.421875 -5.484375 C 7.710938 -7.585938 7.144531 -9.273438 6.71875 -10.546875 Z M 6.71875 -10.546875 "/></g></g></g></svg>