<svg xmlns="http://www.w3.org/2000/svg" xmlns:xlink="http://www.w3.org/1999/xlink" width="219" zoomAndPan="magnify" viewBox="0 0 164.25 159.000002" height="212" preserveAspectRatio="xMidYMid meet" version="1.0"><defs><g/><clipPath id="e128fb0464"><path d="M 31.058594 10.785156 L 132 10.785156 L 132 106.929688 L 31.058594 106.929688 Z M 31.058594 10.785156 " clip-rule="nonzero"/></clipPath></defs><path fill="#ffffff" d="M 75.8125 52.8125 L 80.757812 52.8125 L 80.757812 57.738281 L 75.8125 57.738281 Z M 80.757812 59.761719 L 80.757812 64.707031 L 75.8125 64.707031 L 75.8125 59.761719 Z M 82.761719 52.8125 L 87.691406 52.8125 L 87.691406 57.738281 L 82.761719 57.738281 Z M 87.691406 59.761719 L 87.691406 64.707031 L 82.761719 64.707031 L 82.761719 59.761719 Z M 87.691406 59.761719 " fill-opacity="1" fill-rule="evenodd"/><path fill="#ffffff" d="M 57.382812 44.6875 L 57.382812 92.652344 L 65.972656 97.617188 L 65.972656 77.777344 L 81.75 86.894531 L 106.121094 72.832031 L 106.121094 44.6875 L 81.75 30.625 Z M 81.75 76.984375 L 65.972656 67.867188 L 65.972656 49.652344 L 81.75 40.535156 L 97.527344 49.652344 L 97.527344 67.867188 Z M 81.75 76.984375 " fill-opacity="1" fill-rule="evenodd"/><g clip-path="url(#e128fb0464)"><path fill="#ffffff" d="M 81.75 96.824219 L 71.316406 90.792969 L 71.316406 100.703125 L 81.75 106.734375 L 102.53125 94.746094 L 123.308594 82.742188 L 123.308594 39.722656 L 131.882812 39.722656 L 123.308594 34.777344 L 102.53125 22.773438 L 81.75 10.785156 L 60.972656 22.773438 L 40.214844 34.777344 L 31.621094 39.722656 L 40.214844 39.722656 L 40.214844 82.742188 L 52.039062 89.566406 L 52.039062 79.65625 L 48.804688 77.796875 L 48.804688 39.722656 L 81.75 20.695312 L 114.714844 39.722656 L 114.714844 77.796875 Z M 81.75 96.824219 " fill-opacity="1" fill-rule="evenodd"/></g><g fill="#ffffff" fill-opacity="1"><g transform="translate(24.027006, 134.552952)"><g><path d="M 5.5 -16.671875 L 5.5 0 L 2.109375 0 L 2.109375 -16.671875 Z M 5.5 -16.671875 "/></g></g></g><g fill="#ffffff" fill-opacity="1"><g transform="translate(34.950075, 134.552952)"><g><path d="M 2.109375 0 L 2.109375 -16.640625 C 2.347656 -16.691406 3.035156 -16.757812 4.171875 -16.84375 C 5.316406 -16.9375 6.191406 -16.984375 6.796875 -16.984375 C 11.035156 -16.984375 13.15625 -15.242188 13.15625 -11.765625 C 13.15625 -9.890625 12.394531 -8.296875 10.875 -6.984375 C 11.507812 -5.523438 12.585938 -3.195312 14.109375 0 L 10.640625 0 C 9.773438 -1.875 8.84375 -3.894531 7.84375 -6.0625 C 7.65625 -6.019531 7.394531 -6 7.0625 -6 C 6.28125 -6 5.78125 -6.070312 5.5625 -6.21875 L 5.5625 0 Z M 5.5625 -14.03125 L 5.5625 -9 C 6.082031 -8.84375 6.648438 -8.765625 7.265625 -8.765625 C 8.773438 -8.765625 9.53125 -9.765625 9.53125 -11.765625 C 9.53125 -13.398438 8.75 -14.21875 7.1875 -14.21875 C 6.289062 -14.21875 5.75 -14.15625 5.5625 -14.03125 Z M 5.5625 -14.03125 "/></g></g></g><g fill="#ffffff" fill-opacity="1"><g transform="translate(52.084634, 134.552952)"><g><path d="M 5.21875 -13.90625 L 0.390625 -13.90625 L 0.390625 -16.671875 L 13.875 -16.671875 L 13.875 -13.90625 L 8.6875 -13.90625 L 8.6875 0 L 5.21875 0 Z M 5.21875 -13.90625 "/></g></g></g><g fill="#ffffff" fill-opacity="1"><g transform="translate(69.666623, 134.552952)"><g><path d="M 1.6875 -16.671875 L 12.578125 -16.671875 L 12.578125 -13.90625 L 5.140625 -13.90625 L 5.140625 -9.984375 L 11.34375 -9.984375 L 11.34375 -7.21875 L 5.140625 -7.21875 L 5.140625 -2.765625 L 12.921875 -2.765625 L 12.921875 0 L 1.6875 0 Z M 1.6875 -16.671875 "/></g></g></g><g fill="#ffffff" fill-opacity="1"><g transform="translate(86.301106, 134.552952)"><g><path d="M 5.375 -16.671875 L 5.375 -9.796875 C 7.6875 -12.929688 9.367188 -15.222656 10.421875 -16.671875 L 14.671875 -16.671875 C 12.859375 -14.296875 10.851562 -11.675781 8.65625 -8.8125 C 10.957031 -6.0625 13.375 -3.125 15.90625 0 L 11.328125 0 C 9.710938 -2.15625 7.753906 -4.753906 5.453125 -7.796875 L 5.375 -7.796875 L 5.375 0 L 2.109375 0 L 2.109375 -16.671875 Z M 5.375 -16.671875 "/></g></g></g><g fill="#ffffff" fill-opacity="1"><g transform="translate(105.304372, 134.552952)"><g><path d="M 6.265625 -16.671875 L 9.15625 -16.671875 L 15.296875 0 L 11.796875 0 C 11.492188 -0.875 11.125 -2.03125 10.6875 -3.46875 L 4.71875 -3.46875 C 4.46875 -2.6875 4.085938 -1.53125 3.578125 0 L 0.125 0 Z M 7.734375 -12.15625 C 7.242188 -10.769531 6.570312 -8.820312 5.71875 -6.3125 L 9.71875 -6.3125 C 8.894531 -8.738281 8.234375 -10.6875 7.734375 -12.15625 Z M 7.734375 -12.15625 "/></g></g></g><g fill="#ffffff" fill-opacity="1"><g transform="translate(124.044439, 134.552952)"><g><path d="M 6.265625 -16.671875 L 9.15625 -16.671875 L 15.296875 0 L 11.796875 0 C 11.492188 -0.875 11.125 -2.03125 10.6875 -3.46875 L 4.71875 -3.46875 C 4.46875 -2.6875 4.085938 -1.53125 3.578125 0 L 0.125 0 Z M 7.734375 -12.15625 C 7.242188 -10.769531 6.570312 -8.820312 5.71875 -6.3125 L 9.71875 -6.3125 C 8.894531 -8.738281 8.234375 -10.6875 7.734375 -12.15625 Z M 7.734375 -12.15625 "/></g></g></g></svg>